# xmcd
#
# Track frame offsets:
#	150
#	17528
#	35101
#	52114
#	73613
#	91037
#	110697
#	128444
#	150312
#	173991
#	195413
#	214940
#	233836
#	254465
#
# Disc length: 3604 seconds
#
# Revision: 0
# Processed by: cddbd v1.5.2PL0 Copyright (c) Steve Scherf et al.
# Submitted via: EasyCDDAExtractor 16.1.0.1
#
DISCID=b80e120e
DTITLE=Леонид Портной - Кто тебя создал такую
DYEAR=1900
DGENRE=
TTITLE0=Кто тебя создал такую
TTITLE1=Холодная Москва
TTITLE2=Твой
TTITLE3=Скрипка
TTITLE4=Старый друг
TTITLE5=Сын и дочь
TTITLE6=Случайная ночь
TTITLE7=Давай разойдемся
TTITLE8=Симфония
TTITLE9=Кто виноват
TTITLE10=Незнакомка
TTITLE11=Будь со мной
TTITLE12=Лепестки
TTITLE13=Жизнь идет
EXTD=
EXTT0=
EXTT1=
EXTT2=
EXTT3=
EXTT4=
EXTT5=
EXTT6=
EXTT7=
EXTT8=
EXTT9=
EXTT10=
EXTT11=
EXTT12=
EXTT13=
PLAYORDER=
